<svg width="16" height="16" viewBox="0 0 16 16" fill="none" xmlns="http://www.w3.org/2000/svg">
<path d="M7.66683 14.5C3.90016 14.5 0.833496 11.4333 0.833496 7.66667C0.833496 3.9 3.90016 0.833332 7.66683 0.833332C11.4335 0.833332 14.5002 3.9 14.5002 7.66667C14.5002 11.4333 11.4335 14.5 7.66683 14.5ZM7.66683 1.83333C4.44683 1.83333 1.8335 4.45333 1.8335 7.66667C1.8335 10.88 4.44683 13.5 7.66683 13.5C10.8868 13.5 13.5002 10.88 13.5002 7.66667C13.5002 4.45333 10.8868 1.83333 7.66683 1.83333Z" fill="#858D92"/>
<path d="M14.6667 15.1667C14.54 15.1667 14.4134 15.12 14.3134 15.02L11.9599 12.7067C11.7666 12.5133 11.7666 12.1933 11.9599 12C12.1533 11.8067 12.4733 11.8067 12.6666 12L15.02 14.3133C15.2134 14.5067 15.2134 14.8267 15.02 15.02C14.92 15.12 14.7934 15.1667 14.6667 15.1667Z" fill="#858D92"/>
</svg>
