<svg width="230" height="223" viewBox="0 0 230 223" fill="none" xmlns="http://www.w3.org/2000/svg">
<g filter="url(#filter0_ddii_9_178)">
<ellipse cx="56.6615" cy="42.1493" rx="23.863" ry="23.0107" transform="rotate(-92.8228 56.6615 42.1493)" fill="url(#paint0_radial_9_178)"/>
<path d="M55.5601 19.8134C67.3749 19.2309 77.5353 28.7023 78.1461 41.0899C78.7569 53.4775 69.5776 63.9025 57.7628 64.4851C45.9481 65.0676 35.7877 55.5962 35.1769 43.2086C34.5661 30.821 43.7454 20.396 55.5601 19.8134Z" stroke="url(#paint1_radial_9_178)" stroke-width="3"/>
</g>
<g filter="url(#filter1_dddii_9_178)">
<circle cx="135.052" cy="109.107" r="70.7367" transform="rotate(-92.8228 135.052 109.107)" fill="url(#paint2_radial_9_178)"/>
<circle cx="135.052" cy="109.107" r="66.7367" transform="rotate(-92.8228 135.052 109.107)" stroke="url(#paint3_radial_9_178)" stroke-width="8"/>
</g>
<path opacity="0.4" d="M193.65 103.445C194.199 114.587 191.337 127.696 187.248 138.216C183.643 147.488 172.527 151.982 164.059 155.664C156.77 158.834 150.251 162.38 142.774 164.991C134.886 167.746 128.242 165.372 120.725 162.887C111.254 159.756 105.558 154.522 98.6388 147.821C94.0754 143.401 94.1071 134.807 93.9034 129.007C93.4396 115.806 93.8853 101.422 96.8649 88.4722C97.8333 84.2635 97.6986 79.5153 98.9786 75.4537C99.6074 73.4583 100.13 69.1432 101.25 67.6629C107.238 59.7509 118.472 59.5837 127.984 59.1147C140.416 58.5017 153.848 60.6005 161.786 70.9606C166.172 76.6855 167.713 84.3081 168.744 91.1608C169.315 94.9501 170.842 98.1385 171.038 102.117C171.298 107.38 170.81 113.373 172.295 118.46C176.37 132.415 155.685 136.999 145.714 137.222C140.437 137.34 131.947 134.248 128.077 131.111C124.785 128.443 119.763 125.164 115.363 125.256C109.738 125.373 103.187 124.419 97.6894 123.485C93.3419 122.746 88.9542 119.448 86.9215 115.439C82.9597 107.626 82.5586 100.118 82.1333 91.4923C81.5491 79.644 91.4451 78.6523 101.127 78.3893C111.204 78.1156 121.468 79.945 131.548 79.5819C143.859 79.1385 156.021 78.3752 168.234 77.773C173.031 77.5365 176.79 75.725 181.564 77.8138C184.783 79.2223 187.408 82.6488 188.968 85.7259C192.397 92.4886 192.5 98.4123 192.882 106.176" stroke="#F2A057" stroke-width="3" stroke-linecap="round"/>
<path d="M177.42 111.543C163.586 127.17 140.099 151.791 115.784 146.278C97.9538 142.235 96.0888 121.993 88.8013 109.071C86.7049 105.354 73.7808 108.214 76.3322 104.746C81.534 97.6733 95.9091 96.8339 103.558 98.4626C119.922 101.947 131.321 114.093 145.89 120.926C153.951 124.707 148.304 109.515 147.789 106.163C145.628 92.1023 142.793 77.4805 142.092 63.2706C142.068 62.7689 142.805 64.0071 143.181 64.3571C148.13 68.9699 151.934 74.8576 156.131 80.0605C166.504 92.9202 178.195 105.22 186.564 119.453C195.125 134.012 154.3 132.29 147.363 131.419C130.134 129.256 125.198 106.955 120.686 93.9697C118.378 87.3277 117.736 77.7991 108.439 78.0036C102.687 78.1301 102.672 80.322 100.886 84.6087C96.1149 96.054 111.013 107.405 119.527 112.421C132.677 120.169 146.197 114.867 155.921 104.85C160.305 100.334 163.128 91.7249 170.06 91.3831C181.168 90.8354 186.687 107.556 188.952 116.219C191.587 126.299 177.719 144.604 165.957 140.535C156.892 137.399 155.486 119.906 154.722 112.814C153.134 98.0852 152.845 83.5233 148.433 69.1907C146.675 63.4824 139.186 47.986 130.84 52.9561C124.208 56.9056 116.309 60.5089 112.202 67.1767C104.52 79.6506 102.341 91.9944 104.197 106.564C106.785 126.892 107.992 150.872 127.483 162.423C132.206 165.221 140.011 167.531 145.666 164.795C157.759 158.942 164.389 155.105 170.894 142.192C176.747 130.572 183.055 117.76 187.154 105.59" stroke="#F2D9BA" stroke-opacity="0.5" stroke-width="3" stroke-linecap="round"/>
<path d="M180.314 170.353C344.686 292.07 35.1931 -64.1186 66.8256 20.6929" stroke="#A4A19D" stroke-width="2" stroke-linecap="round"/>
<defs>
<filter id="filter0_ddii_9_178" x="-18.3519" y="10.2878" width="118.027" height="119.723" filterUnits="userSpaceOnUse" color-interpolation-filters="sRGB">
<feFlood flood-opacity="0" result="BackgroundImageFix"/>
<feColorMatrix in="SourceAlpha" type="matrix" values="0 0 0 0 0 0 0 0 0 0 0 0 0 0 0 0 0 0 127 0" result="hardAlpha"/>
<feOffset dx="-16" dy="28"/>
<feGaussianBlur stdDeviation="18"/>
<feComposite in2="hardAlpha" operator="out"/>
<feColorMatrix type="matrix" values="0 0 0 0 0.337255 0 0 0 0 0.333333 0 0 0 0 0.364706 0 0 0 0.5 0"/>
<feBlend mode="normal" in2="BackgroundImageFix" result="effect1_dropShadow_9_178"/>
<feColorMatrix in="SourceAlpha" type="matrix" values="0 0 0 0 0 0 0 0 0 0 0 0 0 0 0 0 0 0 127 0" result="hardAlpha"/>
<feMorphology radius="16" operator="erode" in="SourceAlpha" result="effect2_dropShadow_9_178"/>
<feOffset dx="-12" dy="25"/>
<feGaussianBlur stdDeviation="10"/>
<feComposite in2="hardAlpha" operator="out"/>
<feColorMatrix type="matrix" values="0 0 0 0 0.32895 0 0 0 0 0.312847 0 0 0 0 0.441667 0 0 0 0.55 0"/>
<feBlend mode="normal" in2="effect1_dropShadow_9_178" result="effect2_dropShadow_9_178"/>
<feBlend mode="normal" in="SourceGraphic" in2="effect2_dropShadow_9_178" result="shape"/>
<feColorMatrix in="SourceAlpha" type="matrix" values="0 0 0 0 0 0 0 0 0 0 0 0 0 0 0 0 0 0 127 0" result="hardAlpha"/>
<feMorphology radius="4" operator="erode" in="SourceAlpha" result="effect3_innerShadow_9_178"/>
<feOffset dx="-1" dy="1"/>
<feGaussianBlur stdDeviation="1"/>
<feComposite in2="hardAlpha" operator="arithmetic" k2="-1" k3="1"/>
<feColorMatrix type="matrix" values="0 0 0 0 1 0 0 0 0 0.931869 0 0 0 0 0.8625 0 0 0 1 0"/>
<feBlend mode="normal" in2="shape" result="effect3_innerShadow_9_178"/>
<feColorMatrix in="SourceAlpha" type="matrix" values="0 0 0 0 0 0 0 0 0 0 0 0 0 0 0 0 0 0 127 0" result="hardAlpha"/>
<feMorphology radius="2" operator="erode" in="SourceAlpha" result="effect4_innerShadow_9_178"/>
<feOffset dx="3" dy="-2"/>
<feGaussianBlur stdDeviation="2"/>
<feComposite in2="hardAlpha" operator="arithmetic" k2="-1" k3="1"/>
<feColorMatrix type="matrix" values="0 0 0 0 0 0 0 0 0 0 0 0 0 0 0 0 0 0 0.25 0"/>
<feBlend mode="normal" in2="effect3_innerShadow_9_178" result="effect4_innerShadow_9_178"/>
</filter>
<filter id="filter1_dddii_9_178" x="12.314" y="30.3684" width="213.476" height="213.476" filterUnits="userSpaceOnUse" color-interpolation-filters="sRGB">
<feFlood flood-opacity="0" result="BackgroundImageFix"/>
<feColorMatrix in="SourceAlpha" type="matrix" values="0 0 0 0 0 0 0 0 0 0 0 0 0 0 0 0 0 0 127 0" result="hardAlpha"/>
<feOffset dx="-16" dy="28"/>
<feGaussianBlur stdDeviation="18"/>
<feComposite in2="hardAlpha" operator="out"/>
<feColorMatrix type="matrix" values="0 0 0 0 0.337255 0 0 0 0 0.333333 0 0 0 0 0.364706 0 0 0 0.5 0"/>
<feBlend mode="normal" in2="BackgroundImageFix" result="effect1_dropShadow_9_178"/>
<feColorMatrix in="SourceAlpha" type="matrix" values="0 0 0 0 0 0 0 0 0 0 0 0 0 0 0 0 0 0 127 0" result="hardAlpha"/>
<feMorphology radius="16" operator="erode" in="SourceAlpha" result="effect2_dropShadow_9_178"/>
<feOffset dx="-12" dy="25"/>
<feGaussianBlur stdDeviation="10"/>
<feComposite in2="hardAlpha" operator="out"/>
<feColorMatrix type="matrix" values="0 0 0 0 0.32895 0 0 0 0 0.312847 0 0 0 0 0.441667 0 0 0 0.85 0"/>
<feBlend mode="normal" in2="effect1_dropShadow_9_178" result="effect2_dropShadow_9_178"/>
<feColorMatrix in="SourceAlpha" type="matrix" values="0 0 0 0 0 0 0 0 0 0 0 0 0 0 0 0 0 0 127 0" result="hardAlpha"/>
<feOffset dy="4"/>
<feGaussianBlur stdDeviation="6"/>
<feComposite in2="hardAlpha" operator="out"/>
<feColorMatrix type="matrix" values="0 0 0 0 0 0 0 0 0 0 0 0 0 0 0 0 0 0 0.25 0"/>
<feBlend mode="normal" in2="effect2_dropShadow_9_178" result="effect3_dropShadow_9_178"/>
<feBlend mode="normal" in="SourceGraphic" in2="effect3_dropShadow_9_178" result="shape"/>
<feColorMatrix in="SourceAlpha" type="matrix" values="0 0 0 0 0 0 0 0 0 0 0 0 0 0 0 0 0 0 127 0" result="hardAlpha"/>
<feMorphology radius="8" operator="erode" in="SourceAlpha" result="effect4_innerShadow_9_178"/>
<feOffset dx="-1" dy="1"/>
<feGaussianBlur stdDeviation="2"/>
<feComposite in2="hardAlpha" operator="arithmetic" k2="-1" k3="1"/>
<feColorMatrix type="matrix" values="0 0 0 0 0.983333 0 0 0 0 0.818891 0 0 0 0 0.651458 0 0 0 1 0"/>
<feBlend mode="normal" in2="shape" result="effect4_innerShadow_9_178"/>
<feColorMatrix in="SourceAlpha" type="matrix" values="0 0 0 0 0 0 0 0 0 0 0 0 0 0 0 0 0 0 127 0" result="hardAlpha"/>
<feMorphology radius="7" operator="erode" in="SourceAlpha" result="effect5_innerShadow_9_178"/>
<feOffset dx="3" dy="-2"/>
<feGaussianBlur stdDeviation="5"/>
<feComposite in2="hardAlpha" operator="arithmetic" k2="-1" k3="1"/>
<feColorMatrix type="matrix" values="0 0 0 0 0 0 0 0 0 0 0 0 0 0 0 0 0 0 0.25 0"/>
<feBlend mode="normal" in2="effect4_innerShadow_9_178" result="effect5_innerShadow_9_178"/>
</filter>
<radialGradient id="paint0_radial_9_178" cx="0" cy="0" r="1" gradientUnits="userSpaceOnUse" gradientTransform="translate(60.8596 37.2488) rotate(98.5537) scale(28.2251 29.2251)">
<stop stop-color="#FBF4E8"/>
<stop offset="1" stop-color="#E2C9B0"/>
</radialGradient>
<radialGradient id="paint1_radial_9_178" cx="0" cy="0" r="1" gradientUnits="userSpaceOnUse" gradientTransform="translate(56.6615 42.1493) rotate(-2.82284) scale(23.0107 23.863)">
<stop offset="0.854167" stop-color="#D5CBBD"/>
<stop offset="0.875" stop-color="#E9E3D6"/>
<stop offset="0.927083" stop-color="#E4DDCF"/>
<stop offset="0.956402" stop-color="#EBE5D8"/>
<stop offset="1" stop-color="#D6D5D5"/>
</radialGradient>
<radialGradient id="paint2_radial_9_178" cx="0" cy="0" r="1" gradientUnits="userSpaceOnUse" gradientTransform="translate(147.497 94.0423) rotate(98.2525) scale(86.6987)">
<stop stop-color="#F3D0A2"/>
<stop offset="1" stop-color="#EDB072"/>
</radialGradient>
<radialGradient id="paint3_radial_9_178" cx="0" cy="0" r="1" gradientUnits="userSpaceOnUse" gradientTransform="translate(135.052 109.107) rotate(90) scale(70.7367)">
<stop offset="0.854167" stop-color="#D5CBBD"/>
<stop offset="0.875" stop-color="#E9E3D6"/>
<stop offset="0.927083" stop-color="#E4DDCF"/>
<stop offset="0.956402" stop-color="#EBE5D8"/>
<stop offset="1" stop-color="#C7AE9D"/>
</radialGradient>
</defs>
</svg>
