<svg width="808" height="1024" viewBox="0 0 808 1024" fill="none" xmlns="http://www.w3.org/2000/svg">
<path fill-rule="evenodd" clip-rule="evenodd" d="M250 0H0V1024H250H320H414.042C428.133 958.597 446.835 936.28 495.417 916.716C531.492 907.873 548.024 904.299 572.271 899.903C612.376 887.506 615.984 883.085 632.936 862.308C633.372 861.774 633.816 861.229 634.271 860.672C646.074 846.222 651.405 836.263 656.229 818.239C662.05 796.493 662.458 786.188 656.229 760.594C650 735 602.162 654.731 561.938 592.463C553.039 565.625 554.392 551.804 556.227 533.052C556.636 528.88 557.068 524.464 557.417 519.606C566.826 481.351 575.682 468.254 598.104 442.746C612.762 426.07 626.838 419.601 642.462 412.42C655.471 406.442 669.553 399.97 685.938 386.702C722 357.5 706 316.468 702.5 310.484C701.635 309.005 697.961 304.702 692.688 298.527C676.627 279.716 645.736 243.538 634.271 216.941C620.266 184.453 631.298 137.584 633.825 126.844C634.046 125.906 634.202 125.243 634.271 124.89C635.124 120.5 643 90 679.5 78C693.07 73.5387 702.388 70.7553 709.602 68.6005C721.792 64.9595 727.972 63.1135 738.5 58C740.54 57.009 742.54 56.0436 744.498 55.0978C776.142 39.8177 797.17 29.6638 808 0H320H250Z" fill="url(#paint0_linear_4_53)"/>
<defs>
<linearGradient id="paint0_linear_4_53" x1="119" y1="66" x2="404" y2="1024" gradientUnits="userSpaceOnUse">
<stop stop-color="#D0EEF1"/>
<stop offset="0.996998" stop-color="#76C6D1" stop-opacity="0.9"/>
</linearGradient>
</defs>
</svg>
