<svg width="20" height="21" viewBox="0 0 20 21" fill="none" xmlns="http://www.w3.org/2000/svg">
<path d="M17.5 6.95833H2.5C2.15833 6.95833 1.875 6.675 1.875 6.33333C1.875 5.99167 2.15833 5.70833 2.5 5.70833H17.5C17.8417 5.70833 18.125 5.99167 18.125 6.33333C18.125 6.675 17.8417 6.95833 17.5 6.95833Z" fill="#02173F"/>
<path d="M15 11.125H5C4.65833 11.125 4.375 10.8417 4.375 10.5C4.375 10.1583 4.65833 9.875 5 9.875H15C15.3417 9.875 15.625 10.1583 15.625 10.5C15.625 10.8417 15.3417 11.125 15 11.125Z" fill="#02173F"/>
<path d="M11.6668 15.2917H8.3335C7.99183 15.2917 7.7085 15.0083 7.7085 14.6667C7.7085 14.325 7.99183 14.0417 8.3335 14.0417H11.6668C12.0085 14.0417 12.2918 14.325 12.2918 14.6667C12.2918 15.0083 12.0085 15.2917 11.6668 15.2917Z" fill="#02173F"/>
</svg>
