<svg width="28" height="28" viewBox="0 0 28 28" fill="none" xmlns="http://www.w3.org/2000/svg">
<path d="M2.01811 17.78V17.6283C2.01811 12.4483 4.05978 9.95166 8.63311 9.52C9.11144 9.47333 9.54311 9.82333 9.58978 10.3133C9.63645 10.7917 9.27478 11.2233 8.79644 11.27C5.13311 11.6083 3.76811 13.335 3.76811 17.64V17.7917C3.76811 22.54 5.44811 24.22 10.1964 24.22H17.8031C22.5514 24.22 24.2314 22.54 24.2314 17.7917V17.64C24.2314 13.3117 22.8431 11.585 19.1098 11.27C18.6314 11.2117 18.2698 10.815 18.3164 10.3133C18.3514 9.82333 18.7831 9.47333 19.2614 9.50833C23.9048 9.905 25.9814 12.4133 25.9814 17.6283V17.78C25.9814 23.5083 23.5314 25.9583 17.8031 25.9583H10.1964C4.46811 25.9583 2.01811 23.5083 2.01811 17.78Z" fill="#44AEC3"/>
<path d="M13.125 17.36V2.33333C13.125 1.85499 13.5217 1.45833 14 1.45833C14.4783 1.45833 14.875 1.85499 14.875 2.33333L14.875 17.36C14.875 17.8383 14.4783 18.235 14 18.235C13.5217 18.235 13.125 17.85 13.125 17.36Z" fill="#44AEC3"/>
<path d="M9.21652 14.7583C9.21652 14.5367 9.29819 14.315 9.47319 14.14C9.81152 13.8017 10.3715 13.8017 10.7099 14.14L13.9999 17.43L17.2899 14.14C17.6282 13.8017 18.1882 13.8017 18.5265 14.14C18.8649 14.4783 18.8649 15.0383 18.5265 15.3767L14.6182 19.285C14.2799 19.6233 13.7199 19.6233 13.3815 19.285L9.47319 15.3767C9.29819 15.2017 9.21652 14.98 9.21652 14.7583Z" fill="#44AEC3"/>
</svg>
