  <svg
        width="36"
        height="36"
        viewBox="0 0 36 36"
        fill="none"
        xmlns="http://www.w3.org/2000/svg"
    >
        <rect width="36" height="36" rx="4" fill="#44AEC3" />
        <path
            d="M18.33 27.34C17.24 27.34 16.15 26.93 15.32 26.1C13.66 24.44 13.66 21.75 15.32 20.09L17.8 17.62C18.09 17.33 18.57 17.33 18.86 17.62C19.15 17.91 19.15 18.39 18.86 18.68L16.38 21.15C15.31 22.22 15.31 23.97 16.38 25.04C17.45 26.11 19.2 26.11 20.27 25.04L24.16 21.15C25.34 19.97 25.99 18.4 25.99 16.73C25.99 15.06 25.34 13.49 24.16 12.31C21.72 9.86999 17.76 9.86999 15.32 12.31L11.08 16.55C10.09 17.54 9.54004 18.86 9.54004 20.26C9.54004 21.66 10.09 22.98 11.08 23.97C11.37 24.26 11.37 24.74 11.08 25.03C10.79 25.32 10.31 25.32 10.02 25.03C8.75004 23.75 8.04004 22.06 8.04004 20.26C8.04004 18.46 8.74004 16.76 10.02 15.49L14.26 11.25C17.28 8.22999 22.2 8.22999 25.22 11.25C26.68 12.71 27.49 14.66 27.49 16.73C27.49 18.8 26.68 20.75 25.22 22.21L21.33 26.1C20.5 26.93 19.42 27.34 18.33 27.34Z"
            fill="#F8F9FB"
        />
    </svg>