<svg
        width="40"
        height="40"
        viewBox="0 0 40 40"
        fill="none"
        xmlns="http://www.w3.org/2000/svg"
    >
        <path
            d="M21.6668 24.5833H3.3335C2.65016 24.5833 2.0835 24.0167 2.0835 23.3333V9.99999C2.0835 5.63333 5.6335 2.08333 10.0002 2.08333H25.0002C25.6835 2.08333 26.2502 2.64999 26.2502 3.33333V20C26.2502 22.5333 24.2002 24.5833 21.6668 24.5833ZM4.5835 22.0833H21.6668C22.8168 22.0833 23.7502 21.15 23.7502 20V4.58333H10.0002C7.01683 4.58333 4.5835 7.01666 4.5835 9.99999V22.0833Z"
            fill="#629AEE"
        />
        <path
            d="M31.6668 34.5833H30.0002C29.3168 34.5833 28.7502 34.0167 28.7502 33.3333C28.7502 32.1833 27.8168 31.25 26.6668 31.25C25.5168 31.25 24.5835 32.1833 24.5835 33.3333C24.5835 34.0167 24.0168 34.5833 23.3335 34.5833H16.6668C15.9835 34.5833 15.4168 34.0167 15.4168 33.3333C15.4168 32.1833 14.4835 31.25 13.3335 31.25C12.1835 31.25 11.2502 32.1833 11.2502 33.3333C11.2502 34.0167 10.6835 34.5833 10.0002 34.5833H8.3335C4.8835 34.5833 2.0835 31.7833 2.0835 28.3333V23.3333C2.0835 22.65 2.65016 22.0833 3.3335 22.0833H21.6668C22.8168 22.0833 23.7502 21.15 23.7502 20V8.33334C23.7502 7.65 24.3168 7.08334 25.0002 7.08334H28.0668C29.7168 7.08334 31.2335 7.96669 32.0502 9.40003L34.9002 14.3833C35.1168 14.7667 35.1168 15.25 34.9002 15.6333C34.6835 16.0167 34.2668 16.25 33.8168 16.25H31.6668C31.4335 16.25 31.2502 16.4333 31.2502 16.6667V21.6667C31.2502 21.9 31.4335 22.0833 31.6668 22.0833H36.6668C37.3502 22.0833 37.9168 22.65 37.9168 23.3333V28.3333C37.9168 31.7833 35.1168 34.5833 31.6668 34.5833ZM31.0835 32.0833H31.6668C33.7335 32.0833 35.4168 30.4 35.4168 28.3333V24.5833H31.6668C30.0668 24.5833 28.7502 23.2667 28.7502 21.6667V16.6667C28.7502 15.0667 30.0502 13.75 31.6668 13.75L29.8835 10.6333C29.5168 9.98334 28.8168 9.58334 28.0668 9.58334H26.2502V20C26.2502 22.5333 24.2002 24.5833 21.6668 24.5833H4.5835V28.3333C4.5835 30.4 6.26683 32.0833 8.3335 32.0833H8.91684C9.46684 30.1667 11.2335 28.75 13.3335 28.75C15.4335 28.75 17.2002 30.1667 17.7502 32.0833H22.2668C22.8168 30.1667 24.5835 28.75 26.6835 28.75C28.7835 28.75 30.5335 30.1667 31.0835 32.0833Z"
            fill="#629AEE"
        />
        <path
            d="M13.3333 37.9167C10.8 37.9167 8.75 35.8667 8.75 33.3333C8.75 30.8 10.8 28.75 13.3333 28.75C15.8667 28.75 17.9167 30.8 17.9167 33.3333C17.9167 35.8667 15.8667 37.9167 13.3333 37.9167ZM13.3333 31.25C12.1833 31.25 11.25 32.1833 11.25 33.3333C11.25 34.4833 12.1833 35.4167 13.3333 35.4167C14.4833 35.4167 15.4167 34.4833 15.4167 33.3333C15.4167 32.1833 14.4833 31.25 13.3333 31.25Z"
            fill="#629AEE"
        />
        <path
            d="M26.6668 37.9167C24.1335 37.9167 22.0835 35.8667 22.0835 33.3333C22.0835 30.8 24.1335 28.75 26.6668 28.75C29.2002 28.75 31.2502 30.8 31.2502 33.3333C31.2502 35.8667 29.2002 37.9167 26.6668 37.9167ZM26.6668 31.25C25.5168 31.25 24.5835 32.1833 24.5835 33.3333C24.5835 34.4833 25.5168 35.4167 26.6668 35.4167C27.8168 35.4167 28.7502 34.4833 28.7502 33.3333C28.7502 32.1833 27.8168 31.25 26.6668 31.25Z"
            fill="#629AEE"
        />
        <path
            d="M36.6667 24.5833H31.6667C30.0667 24.5833 28.75 23.2667 28.75 21.6667V16.6667C28.75 15.0667 30.0667 13.75 31.6667 13.75H33.8167C34.2667 13.75 34.6833 13.9833 34.9 14.3833L37.75 19.3833C37.85 19.5667 37.9167 19.7833 37.9167 20V23.3333C37.9167 24.0167 37.35 24.5833 36.6667 24.5833ZM31.6667 16.25C31.4333 16.25 31.25 16.4333 31.25 16.6667V21.6667C31.25 21.9 31.4333 22.0833 31.6667 22.0833H35.4167V20.3334L33.0833 16.25H31.6667Z"
            fill="#629AEE"
        />
    </svg>