<svg width="29" height="28" viewBox="0 0 29 28" fill="none" xmlns="http://www.w3.org/2000/svg">
<path d="M21.2552 26.5417H7.74516C4.5485 26.5417 1.9585 23.94 1.9585 20.7433V12.0983C1.9585 10.5117 2.9385 8.51668 4.1985 7.53668L10.4868 2.63668C12.3768 1.16668 15.3985 1.09668 17.3585 2.47334L24.5685 7.52501C25.9568 8.49334 27.0418 10.57 27.0418 12.2617V20.755C27.0418 23.94 24.4518 26.5417 21.2552 26.5417ZM11.5602 4.01334L5.27183 8.91334C4.4435 9.56668 3.7085 11.0483 3.7085 12.0983V20.7433C3.7085 22.9717 5.51683 24.7917 7.74516 24.7917H21.2552C23.4835 24.7917 25.2918 22.9833 25.2918 20.755V12.2617C25.2918 11.1417 24.4868 9.59001 23.5652 8.96001L16.3552 3.90834C15.0252 2.97501 12.8318 3.02168 11.5602 4.01334Z" fill="#02173F"/>
<path d="M14.5 21.875C14.0217 21.875 13.625 21.4783 13.625 21V17.5C13.625 17.0217 14.0217 16.625 14.5 16.625C14.9783 16.625 15.375 17.0217 15.375 17.5V21C15.375 21.4783 14.9783 21.875 14.5 21.875Z" fill="#02173F"/>
</svg>
