<svg width="24" height="24" viewBox="0 0 24 24" fill="none" xmlns="http://www.w3.org/2000/svg">
<path d="M15 22.75H9C3.57 22.75 1.25 20.43 1.25 15V9C1.25 3.57 3.57 1.25 9 1.25H11C11.41 1.25 11.75 1.59 11.75 2C11.75 2.41 11.41 2.75 11 2.75H9C4.39 2.75 2.75 4.39 2.75 9V15C2.75 19.61 4.39 21.25 9 21.25H15C19.61 21.25 21.25 19.61 21.25 15V13C21.25 12.59 21.59 12.25 22 12.25C22.41 12.25 22.75 12.59 22.75 13V15C22.75 20.43 20.43 22.75 15 22.75Z" fill="#858D92"/>
<path d="M8.50032 17.69C7.89032 17.69 7.33032 17.47 6.92032 17.07C6.43032 16.58 6.22032 15.87 6.33032 15.12L6.76032 12.11C6.84032 11.53 7.22032 10.78 7.63032 10.37L15.5103 2.49C17.5003 0.499998 19.5203 0.499998 21.5103 2.49C22.6003 3.58 23.0903 4.69 22.9903 5.8C22.9003 6.7 22.4203 7.58 21.5103 8.48L13.6303 16.36C13.2203 16.77 12.4703 17.15 11.8903 17.23L8.88032 17.66C8.75032 17.69 8.62032 17.69 8.50032 17.69ZM16.5703 3.55L8.69032 11.43C8.50032 11.62 8.28032 12.06 8.24032 12.32L7.81032 15.33C7.77032 15.62 7.83032 15.86 7.98032 16.01C8.13032 16.16 8.37032 16.22 8.66032 16.18L11.6703 15.75C11.9303 15.71 12.3803 15.49 12.5603 15.3L20.4403 7.42C21.0903 6.77 21.4303 6.19 21.4803 5.65C21.5403 5 21.2003 4.31 20.4403 3.54C18.8403 1.94 17.7403 2.39 16.5703 3.55Z" fill="#858D92"/>
<path d="M19.8496 9.83003C19.7796 9.83003 19.7096 9.82003 19.6496 9.80003C17.0196 9.06003 14.9296 6.97003 14.1896 4.34003C14.0796 3.94003 14.3096 3.53003 14.7096 3.41003C15.1096 3.30003 15.5196 3.53003 15.6296 3.93003C16.2296 6.06003 17.9196 7.75003 20.0496 8.35003C20.4496 8.46003 20.6796 8.88003 20.5696 9.28003C20.4796 9.62003 20.1796 9.83003 19.8496 9.83003Z" fill="#858D92"/>
</svg>
