<svg xmlns="http://www.w3.org/2000/svg" width="50" height="40" viewBox="0 0 50 40" fill="none">
<g clip-path="url(#clip0_6_4)">
<path d="M11.3645 39.8031V19.3036L5.37362 13.4875L0.00146484 10.2599V36.1855C0.00146484 38.1872 1.5297 39.8031 3.41045 39.8031H11.3645Z" fill="#4285F4"/>
<path d="M38.6355 39.8031H46.5895C48.476 39.8031 49.9985 38.1811 49.9985 36.1855V10.2601L43.9137 13.9569L38.6355 19.3036V39.8031Z" fill="#34A853"/>
<path d="M11.3645 19.3036L10.5493 11.2939L11.3645 3.62778L25.0001 14.4804L38.6356 3.62778L39.5475 10.88L38.6356 19.3036L25.0001 30.1563L11.3645 19.3036Z" fill="#EA4335"/>
<path d="M38.6355 3.62788V19.3037L49.9985 10.26V5.43658C49.9985 0.963006 45.1863 -1.58725 41.8174 1.09565L38.6355 3.62788Z" fill="#FBBC04"/>
<path d="M0.00146484 10.2599L5.22754 14.4195L11.3645 19.3037V3.6278L8.18264 1.09557C4.80783 -1.58753 0.00146484 0.962932 0.00146484 5.4363V10.2597V10.2599Z" fill="#C5221F"/>
</g>
<defs>
<clipPath id="clip0_6_4">
<rect width="50" height="40" fill="white"/>
</clipPath>
</defs>
</svg>