<svg width="18" height="18" viewBox="0 0 18 18" fill="none" xmlns="http://www.w3.org/2000/svg">
<path d="M9 17.0625C4.5525 17.0625 0.9375 13.4475 0.9375 9C0.9375 4.5525 4.5525 0.9375 9 0.9375C13.4475 0.9375 17.0625 4.5525 17.0625 9C17.0625 13.4475 13.4475 17.0625 9 17.0625ZM9 2.0625C5.175 2.0625 2.0625 5.175 2.0625 9C2.0625 12.825 5.175 15.9375 9 15.9375C12.825 15.9375 15.9375 12.825 15.9375 9C15.9375 5.175 12.825 2.0625 9 2.0625Z" fill="#858D92"/>
<path d="M12 9.5625H6C5.6925 9.5625 5.4375 9.3075 5.4375 9C5.4375 8.6925 5.6925 8.4375 6 8.4375H12C12.3075 8.4375 12.5625 8.6925 12.5625 9C12.5625 9.3075 12.3075 9.5625 12 9.5625Z" fill="#858D92"/>
<path d="M9 12.5625C8.6925 12.5625 8.4375 12.3075 8.4375 12V6C8.4375 5.6925 8.6925 5.4375 9 5.4375C9.3075 5.4375 9.5625 5.6925 9.5625 6V12C9.5625 12.3075 9.3075 12.5625 9 12.5625Z" fill="#858D92"/>
</svg>
