<svg width="20" height="20" viewBox="0 0 20 20" fill="none" xmlns="http://www.w3.org/2000/svg">
<path d="M6.6665 4.79167C6.32484 4.79167 6.0415 4.50833 6.0415 4.16667V1.66667C6.0415 1.325 6.32484 1.04167 6.6665 1.04167C7.00817 1.04167 7.2915 1.325 7.2915 1.66667V4.16667C7.2915 4.50833 7.00817 4.79167 6.6665 4.79167Z" fill="#858D92"/>
<path d="M13.3335 4.79167C12.9918 4.79167 12.7085 4.50833 12.7085 4.16667V1.66667C12.7085 1.325 12.9918 1.04167 13.3335 1.04167C13.6752 1.04167 13.9585 1.325 13.9585 1.66667V4.16667C13.9585 4.50833 13.6752 4.79167 13.3335 4.79167Z" fill="#858D92"/>
<path d="M12.2333 18.9583H6.66667C3.625 18.9583 1.875 17.2083 1.875 14.1667V7.08333C1.875 4.04167 3.625 2.29167 6.66667 2.29167H13.3333C16.375 2.29167 18.125 4.04167 18.125 7.08333V11.3583C18.125 11.6 17.9833 11.8167 17.775 11.925C17.5583 12.025 17.3 12 17.1167 11.85C15.8 10.8 13.775 10.8 12.4583 11.875C11.5583 12.5833 11.05 13.6417 11.05 14.8C11.05 15.4833 11.2333 16.15 11.5917 16.725C11.8667 17.175 12.2083 17.55 12.6083 17.8334C12.825 17.9917 12.925 18.275 12.8417 18.5333C12.7417 18.7833 12.5083 18.9583 12.2333 18.9583ZM6.66667 3.54167C4.28333 3.54167 3.125 4.7 3.125 7.08333V14.1667C3.125 16.55 4.28333 17.7083 6.66667 17.7083H10.7417C10.6583 17.6 10.5833 17.4834 10.5167 17.3667C10.0417 16.6 9.79167 15.7083 9.79167 14.7917C9.79167 13.25 10.475 11.8333 11.675 10.8917C13.1 9.73334 15.2083 9.48332 16.875 10.25V7.08333C16.875 4.7 15.7167 3.54167 13.3333 3.54167H6.66667Z" fill="#858D92"/>
<path d="M10.8335 9.79167H5.8335C5.49183 9.79167 5.2085 9.50833 5.2085 9.16667C5.2085 8.825 5.49183 8.54167 5.8335 8.54167H10.8335C11.1752 8.54167 11.4585 8.825 11.4585 9.16667C11.4585 9.50833 11.1752 9.79167 10.8335 9.79167Z" fill="#858D92"/>
<path d="M8.01683 13.9583H5.8335C5.49183 13.9583 5.2085 13.675 5.2085 13.3333C5.2085 12.9917 5.49183 12.7083 5.8335 12.7083H8.01683C8.35849 12.7083 8.64183 12.9917 8.64183 13.3333C8.64183 13.675 8.36683 13.9583 8.01683 13.9583Z" fill="#858D92"/>
<path d="M14.7915 19.7916C13.7248 19.7916 12.7165 19.4583 11.8665 18.8416C11.3332 18.4583 10.8748 17.9583 10.5165 17.3667C10.0415 16.6 9.7915 15.7083 9.7915 14.7916C9.7915 13.25 10.4748 11.8333 11.6748 10.8917C13.4082 9.48332 16.1415 9.47496 17.8915 10.8666C19.0998 11.8166 19.7915 13.25 19.7915 14.7916C19.7915 15.7083 19.5415 16.6 19.0665 17.3667C18.7998 17.825 18.4582 18.225 18.0665 18.55C17.1748 19.35 16.0082 19.7916 14.7915 19.7916ZM14.7915 11.0416C13.9415 11.0416 13.1082 11.3333 12.4498 11.8666C11.5498 12.575 11.0415 13.6333 11.0415 14.7916C11.0415 15.475 11.2248 16.1416 11.5832 16.7166C11.8582 17.1666 12.1998 17.5417 12.5998 17.825C13.2415 18.2917 13.9998 18.5416 14.7915 18.5416C15.7165 18.5416 16.5665 18.2166 17.2498 17.6083C17.5498 17.3583 17.7915 17.0667 17.9915 16.725C18.3498 16.1417 18.5415 15.475 18.5415 14.7916C18.5415 13.6333 18.0248 12.5666 17.1165 11.85C16.4498 11.3166 15.6498 11.0416 14.7915 11.0416Z" fill="#858D92"/>
<path d="M14.7918 17.5C14.4502 17.5 14.1668 17.2167 14.1668 16.875C14.1668 16.075 13.5085 15.4167 12.7085 15.4167C12.3668 15.4167 12.0835 15.1333 12.0835 14.7917C12.0835 14.45 12.3668 14.1667 12.7085 14.1667C13.5085 14.1667 14.1668 13.5083 14.1668 12.7083C14.1668 12.3667 14.4502 12.0833 14.7918 12.0833C15.1335 12.0833 15.4168 12.3667 15.4168 12.7083C15.4168 13.5083 16.0752 14.1667 16.8752 14.1667C17.2168 14.1667 17.5002 14.45 17.5002 14.7917C17.5002 15.1333 17.2168 15.4167 16.8752 15.4167C16.0752 15.4167 15.4168 16.075 15.4168 16.875C15.4168 17.2167 15.1335 17.5 14.7918 17.5ZM14.4335 14.7917C14.5585 14.9 14.6835 15.0167 14.7918 15.15C14.9002 15.025 15.0168 14.9 15.1502 14.7917C15.0252 14.6833 14.9002 14.5667 14.7918 14.4333C14.6835 14.5667 14.5668 14.6833 14.4335 14.7917Z" fill="#858D92"/>
</svg>
