 <svg
        width="20"
        height="20"
        viewBox="0 0 20 20"
        fill="none"
        xmlns="http://www.w3.org/2000/svg"
    >
        <path
            d="M9.93343 18.9583C5.0001 18.9583 0.975098 14.9417 0.975098 9.99999C0.975098 5.05832 5.0001 1.04166 9.93343 1.04166C14.8668 1.04166 18.8918 5.05832 18.8918 9.99999C18.8918 14.9417 14.8751 18.9583 9.93343 18.9583ZM9.93343 2.29166C5.68343 2.29166 2.2251 5.74999 2.2251 9.99999C2.2251 14.25 5.68343 17.7083 9.93343 17.7083C14.1834 17.7083 17.6418 14.25 17.6418 9.99999C17.6418 5.74999 14.1834 2.29166 9.93343 2.29166Z"
            fill="#44AEC3"
        />
        <path
            d="M13.2668 10.625H6.6001C6.25843 10.625 5.9751 10.3417 5.9751 10C5.9751 9.65833 6.25843 9.375 6.6001 9.375H13.2668C13.6084 9.375 13.8918 9.65833 13.8918 10C13.8918 10.3417 13.6168 10.625 13.2668 10.625Z"
            fill="#44AEC3"
        />
    </svg>