 <svg
        width="28"
        height="28"
        viewBox="0 0 28 28"
        fill="none"
        xmlns="http://www.w3.org/2000/svg"
    >
        <path
            d="M14.0235 23.7417C11.0135 23.7417 8.01517 23.2633 5.15684 22.3067C4.09517 21.9567 3.29017 21.1983 2.94017 20.2417C2.59017 19.285 2.70684 18.1883 3.2785 17.2317L4.76017 14.7583C5.08684 14.21 5.3785 13.1833 5.3785 12.5417V10.0917C5.3785 5.31999 9.25184 1.44666 14.0235 1.44666C18.7952 1.44666 22.6685 5.31999 22.6685 10.0917V12.5417C22.6685 13.1717 22.9602 14.21 23.2868 14.7583L24.7685 17.2317C25.3168 18.1417 25.4102 19.2267 25.0485 20.2183C24.6868 21.21 23.8935 21.9683 22.8902 22.3067C20.0318 23.275 17.0335 23.7417 14.0235 23.7417ZM14.0235 3.20832C10.2202 3.20832 7.1285 6.29999 7.1285 10.1033V12.5533C7.1285 13.4983 6.75517 14.8633 6.26517 15.6683L4.7835 18.1533C4.48017 18.655 4.41017 19.1917 4.58517 19.6583C4.76017 20.125 5.15684 20.475 5.71684 20.6617C11.0835 22.4467 16.9868 22.4467 22.3535 20.6617C22.8552 20.4983 23.2402 20.125 23.4152 19.635C23.6018 19.145 23.5435 18.6083 23.2752 18.1533L21.7935 15.68C21.3035 14.875 20.9302 13.51 20.9302 12.565V10.115C20.9185 6.29999 17.8268 3.20832 14.0235 3.20832Z"
            fill="#1B1B1B"
        />
        <path
            d="M14.0002 26.7167C12.7519 26.7167 11.5269 26.2033 10.6402 25.3167C9.75357 24.43 9.24023 23.205 9.24023 21.9567H10.9902C10.9902 22.75 11.3169 23.52 11.8769 24.08C12.4369 24.64 13.2069 24.9667 14.0002 24.9667C15.6569 24.9667 17.0102 23.6133 17.0102 21.9567H18.7602C18.7602 24.5817 16.6252 26.7167 14.0002 26.7167Z"
            fill="#1B1B1B"
        />
        <circle cx="20.4165" cy="6.41669" r="5.25" fill="#C5221F" />
    </svg>