<svg width="20" height="20" viewBox="0 0 20 20" fill="none" xmlns="http://www.w3.org/2000/svg">
<path d="M10 13.125C8.275 13.125 6.875 11.725 6.875 10C6.875 8.275 8.275 6.875 10 6.875C11.725 6.875 13.125 8.275 13.125 10C13.125 11.725 11.725 13.125 10 13.125ZM10 8.125C8.96667 8.125 8.125 8.96667 8.125 10C8.125 11.0333 8.96667 11.875 10 11.875C11.0333 11.875 11.875 11.0333 11.875 10C11.875 8.96667 11.0333 8.125 10 8.125Z" fill="#02173F"/>
<path d="M12.6753 18.4917C12.5003 18.4917 12.3253 18.4667 12.1503 18.425C11.6337 18.2833 11.2003 17.9583 10.9253 17.5L10.8253 17.3333C10.3337 16.4833 9.65866 16.4833 9.16699 17.3333L9.07533 17.4917C8.80033 17.9583 8.36699 18.2917 7.85033 18.425C7.32533 18.5667 6.78366 18.4917 6.32533 18.2167L4.89199 17.3917C4.38366 17.1 4.01699 16.625 3.85866 16.05C3.70866 15.475 3.78366 14.8833 4.07533 14.375C4.31699 13.95 4.38366 13.5667 4.24199 13.325C4.10033 13.0833 3.74199 12.9417 3.25033 12.9417C2.03366 12.9417 1.04199 11.95 1.04199 10.7333V9.26667C1.04199 8.05 2.03366 7.05833 3.25033 7.05833C3.74199 7.05833 4.10033 6.91667 4.24199 6.675C4.38366 6.43333 4.32533 6.05 4.07533 5.625C3.78366 5.11667 3.70866 4.51667 3.85866 3.95C4.00866 3.375 4.37533 2.9 4.89199 2.60833L6.33366 1.78333C7.27533 1.225 8.51699 1.55 9.08366 2.50833L9.18366 2.675C9.67533 3.525 10.3503 3.525 10.842 2.675L10.9337 2.51667C11.5003 1.55 12.742 1.225 13.692 1.79167L15.1253 2.61667C15.6337 2.90833 16.0003 3.38333 16.1587 3.95833C16.3087 4.53333 16.2337 5.125 15.942 5.63333C15.7003 6.05833 15.6337 6.44167 15.7753 6.68333C15.917 6.925 16.2753 7.06667 16.767 7.06667C17.9837 7.06667 18.9753 8.05833 18.9753 9.275V10.7417C18.9753 11.9583 17.9837 12.95 16.767 12.95C16.2753 12.95 15.917 13.0917 15.7753 13.3333C15.6337 13.575 15.692 13.9583 15.942 14.3833C16.2337 14.8917 16.317 15.4917 16.1587 16.0583C16.0087 16.6333 15.642 17.1083 15.1253 17.4L13.6837 18.225C13.367 18.4 13.0253 18.4917 12.6753 18.4917ZM10.0003 15.4083C10.742 15.4083 11.4337 15.875 11.9087 16.7L12.0003 16.8583C12.1003 17.0333 12.267 17.1583 12.467 17.2083C12.667 17.2583 12.867 17.2333 13.0337 17.1333L14.4753 16.3C14.692 16.175 14.8587 15.9667 14.9253 15.7167C14.992 15.4667 14.9587 15.2083 14.8337 14.9917C14.3587 14.175 14.3003 13.3333 14.667 12.6917C15.0337 12.05 15.792 11.6833 16.742 11.6833C17.2753 11.6833 17.7003 11.2583 17.7003 10.725V9.25833C17.7003 8.73333 17.2753 8.3 16.742 8.3C15.792 8.3 15.0337 7.93333 14.667 7.29167C14.3003 6.65 14.3587 5.80833 14.8337 4.99167C14.9587 4.775 14.992 4.51667 14.9253 4.26667C14.8587 4.01667 14.7003 3.81667 14.4837 3.68333L13.042 2.85833C12.6837 2.64167 12.2087 2.76667 11.992 3.13333L11.9003 3.29167C11.4253 4.11667 10.7337 4.58333 9.99199 4.58333C9.25033 4.58333 8.55866 4.11667 8.08366 3.29167L7.99199 3.125C7.78366 2.775 7.31699 2.65 6.95866 2.85833L5.51699 3.69167C5.30033 3.81667 5.13366 4.025 5.06699 4.275C5.00033 4.525 5.03366 4.78333 5.15866 5C5.63366 5.81667 5.69199 6.65833 5.32533 7.3C4.95866 7.94167 4.20033 8.30833 3.25033 8.30833C2.71699 8.30833 2.29199 8.73333 2.29199 9.26667V10.7333C2.29199 11.2583 2.71699 11.6917 3.25033 11.6917C4.20033 11.6917 4.95866 12.0583 5.32533 12.7C5.69199 13.3417 5.63366 14.1833 5.15866 15C5.03366 15.2167 5.00033 15.475 5.06699 15.725C5.13366 15.975 5.29199 16.175 5.50866 16.3083L6.95033 17.1333C7.12533 17.2417 7.33366 17.2667 7.52533 17.2167C7.72533 17.1667 7.89199 17.0333 8.00033 16.8583L8.09199 16.7C8.56699 15.8833 9.25866 15.4083 10.0003 15.4083Z" fill="#02173F"/>
</svg>
