<svg
        width="24"
        height="24"
        viewBox="0 0 24 24"
        fill="currentColor"
        xmlns="http://www.w3.org/2000/svg"
    >
        <path
            d="M12 19.3701C10.21 19.3701 8.41994 18.6901 7.04994 17.3201C4.31994 14.5901 4.31994 10.1501 7.04994 7.42006C9.77994 4.69006 14.22 4.69006 16.95 7.42006C19.68 10.1501 19.68 14.5901 16.95 17.3201C15.58 18.6901 13.79 19.3701 12 19.3701ZM12 6.87007C10.59 6.87007 9.17994 7.41006 8.10994 8.48006C5.96994 10.6301 5.96994 14.1101 8.10994 16.2601C10.2599 18.4101 13.75 18.4001 15.89 16.2601C18.03 14.1101 18.03 10.6301 15.89 8.48006C14.82 7.41006 13.41 6.87007 12 6.87007Z"
            fill="#02173F"
        />
        <path
            d="M8.25003 22.39C8.16003 22.39 8.06004 22.37 7.97004 22.34C5.72004 21.44 3.90003 19.85 2.68003 17.75C1.50003 15.7 1.03003 13.38 1.34003 11.02C1.39003 10.61 1.77003 10.32 2.18003 10.37C2.59003 10.42 2.88002 10.8 2.83002 11.21C2.57002 13.23 2.97005 15.23 3.98005 16.99C5.02005 18.79 6.59002 20.16 8.52002 20.93C8.90002 21.09 9.09004 21.52 8.94004 21.91C8.83004 22.21 8.54003 22.39 8.25003 22.39Z"
            fill="#02173F"
        />
        <path
            d="M5.8501 5.22998C5.6301 5.22998 5.4101 5.13 5.2601 4.94C5.0001 4.61 5.06011 4.14001 5.39011 3.89001C7.30011 2.40001 9.58009 1.60999 12.0001 1.60999C14.3601 1.60999 16.6101 2.37 18.5001 3.81C18.8301 4.06 18.8901 4.52999 18.6401 4.85999C18.3901 5.18999 17.9201 5.25 17.5901 5C15.9701 3.76 14.0401 3.10999 12.0001 3.10999C9.92009 3.10999 7.95009 3.79001 6.31009 5.07001C6.17009 5.18001 6.0101 5.22998 5.8501 5.22998Z"
            fill="#02173F"
        />
        <path
            d="M15.7502 22.39C15.4502 22.39 15.1702 22.21 15.0502 21.92C14.9002 21.54 15.0802 21.1 15.4702 20.94C17.4002 20.16 18.9702 18.8 20.0102 17C21.0302 15.24 21.4302 13.24 21.1602 11.22C21.1102 10.81 21.4002 10.43 21.8102 10.38C22.2102 10.33 22.6002 10.62 22.6502 11.03C22.9502 13.38 22.4902 15.71 21.3102 17.76C20.1002 19.86 18.2702 21.44 16.0202 22.35C15.9402 22.37 15.8502 22.39 15.7502 22.39Z"
            fill="#02173F"
        />
    </svg>