   <svg
        width="40"
        height="40"
        viewBox="0 0 40 40"
        fill="none"
        xmlns="http://www.w3.org/2000/svg"
    >
        <path
            d="M25.9831 21.6833C20.5831 21.6833 16.1831 17.2833 16.1831 11.8833C16.1831 6.48334 20.5831 2.08333 25.9831 2.08333C31.3831 2.08333 35.7831 6.48334 35.7831 11.8833C35.7831 17.2833 31.3831 21.6833 25.9831 21.6833ZM25.9831 4.58333C21.9664 4.58333 18.6831 7.85 18.6831 11.8833C18.6831 15.9167 21.9498 19.1833 25.9831 19.1833C30.0164 19.1833 33.2831 15.9167 33.2831 11.8833C33.2831 7.85 29.9998 4.58333 25.9831 4.58333Z"
            fill="#44AEC3"
        />
        <path
            d="M10.6006 33.6501C7.08393 33.6501 4.21729 30.7834 4.21729 27.2667C4.21729 23.7501 7.08393 20.8834 10.6006 20.8834C14.1173 20.8834 16.984 23.7501 16.984 27.2667C16.984 30.7834 14.1173 33.6501 10.6006 33.6501ZM10.6006 23.3834C8.46726 23.3834 6.71729 25.1167 6.71729 27.2667C6.71729 29.4001 8.4506 31.1501 10.6006 31.1501C12.7339 31.1501 14.484 29.4167 14.484 27.2667C14.484 25.1334 12.7339 23.3834 10.6006 23.3834Z"
            fill="#44AEC3"
        />
        <path
            d="M27.7003 37.9167C24.6503 37.9167 22.1836 35.4333 22.1836 32.4C22.1836 29.35 24.6669 26.8833 27.7003 26.8833C30.7336 26.8833 33.2169 29.3667 33.2169 32.4C33.2169 35.4333 30.7336 37.9167 27.7003 37.9167ZM27.7003 29.3667C26.0336 29.3667 24.6836 30.7167 24.6836 32.3833C24.6836 34.05 26.0336 35.4 27.7003 35.4C29.3669 35.4 30.7169 34.05 30.7169 32.3833C30.7169 30.7333 29.3669 29.3667 27.7003 29.3667Z"
            fill="#44AEC3"
        />
    </svg>