<svg width="24" height="24" viewBox="0 0 24 24" fill="none" xmlns="http://www.w3.org/2000/svg">
<path d="M20.9997 6.73001C20.9797 6.73001 20.9497 6.73001 20.9197 6.73001C15.6297 6.20001 10.3497 6.00001 5.11967 6.53001L3.07967 6.73001C2.65967 6.77001 2.28967 6.47001 2.24967 6.05001C2.20967 5.63001 2.50967 5.27001 2.91967 5.23001L4.95967 5.03001C10.2797 4.49001 15.6697 4.70001 21.0697 5.23001C21.4797 5.27001 21.7797 5.64001 21.7397 6.05001C21.7097 6.44001 21.3797 6.73001 20.9997 6.73001Z" fill="#858D92"/>
<path d="M8.49977 5.72C8.45977 5.72 8.41977 5.72 8.36977 5.71C7.96977 5.64 7.68977 5.25 7.75977 4.85L7.97977 3.54C8.13977 2.58 8.35977 1.25 10.6898 1.25H13.3098C15.6498 1.25 15.8698 2.63 16.0198 3.55L16.2398 4.85C16.3098 5.26 16.0298 5.65 15.6298 5.71C15.2198 5.78 14.8298 5.5 14.7698 5.1L14.5498 3.8C14.4098 2.93 14.3798 2.76 13.3198 2.76H10.6998C9.63977 2.76 9.61977 2.9 9.46977 3.79L9.23977 5.09C9.17977 5.46 8.85977 5.72 8.49977 5.72Z" fill="#858D92"/>
<path d="M15.21 22.75H8.79C5.3 22.75 5.16 20.82 5.05 19.26L4 6.00001C3.97 5.59001 4.29 5.23001 4.7 5.20001C5.12 5.18001 5.47 5.49001 5.5 5.90001L6.55 19.16C6.66 20.68 6.7 21.25 8.79 21.25H15.21C17.31 21.25 17.35 20.68 17.45 19.16L18.15 6.2C18.18 5.79 18.54 5.48 18.95 5.5C19.36 5.53 19.68 5.88 19.65 6.3L18.95 19.26C18.84 20.82 18.7 22.75 15.21 22.75Z" fill="#858D92"/>
<path d="M13.6601 17.25H10.3301C9.92008 17.25 9.58008 16.91 9.58008 16.5C9.58008 16.09 9.92008 15.75 10.3301 15.75H13.6601C14.0701 15.75 14.4101 16.09 14.4101 16.5C14.4101 16.91 14.0701 17.25 13.6601 17.25Z" fill="#858D92"/>
</svg>
