<svg width="36" height="36" viewBox="0 0 36 36" fill="none" xmlns="http://www.w3.org/2000/svg">
<rect width="36" height="36" rx="4" fill="#44AEC3"/>
<path d="M23 28.75H13.63C13.31 28.75 13.03 28.55 12.92 28.26C12.81 27.97 12.9 27.63 13.14 27.43C13.38 27.23 13.6 26.97 13.76 26.69C14.08 26.18 14.24 25.6 14.24 25.01C14.24 23.22 12.78 21.76 10.99 21.76C10.06 21.76 9.16999 22.16 8.54999 22.87C8.33999 23.1 8.00997 23.19 7.71997 23.08C7.42997 22.97 7.22998 22.69 7.22998 22.38V18C7.22998 14.92 9.13002 12.69 12.08 12.32C12.35 12.28 12.66 12.25 12.98 12.25H22.98C23.22 12.25 23.53 12.26 23.85 12.31C26.8 12.65 28.73 14.89 28.73 18V23C28.75 26.44 26.44 28.75 23 28.75ZM15.18 27.25H23C25.58 27.25 27.25 25.58 27.25 23V18C27.25 15.66 25.88 14.05 23.66 13.79C23.42 13.75 23.21 13.75 23 13.75H13C12.76 13.75 12.53 13.77 12.3 13.8C10.1 14.08 8.75 15.68 8.75 18V20.82C9.43 20.45 10.21 20.25 11 20.25C13.62 20.25 15.75 22.38 15.75 25C15.75 25.79 15.55 26.57 15.18 27.25Z" fill="white"/>
<path d="M12.19 13.8099C11.95 13.8099 11.73 13.7 11.58 13.5C11.41 13.27 11.39 12.9699 11.52 12.7199C11.69 12.3799 11.93 12.05 12.24 11.75L15.49 8.48994C17.15 6.83994 19.85 6.83994 21.51 8.48994L23.26 10.27C24 11 24.45 11.98 24.5 13.02C24.51 13.25 24.42 13.4699 24.25 13.6199C24.08 13.7699 23.85 13.8399 23.63 13.7999C23.43 13.7699 23.22 13.76 23 13.76H13C12.76 13.76 12.53 13.7799 12.3 13.8099C12.27 13.8099 12.23 13.8099 12.19 13.8099ZM13.86 12.25H22.82C22.69 11.91 22.48 11.6 22.2 11.32L20.44 9.53993C19.37 8.47993 17.62 8.47993 16.54 9.53993L13.86 12.25Z" fill="white"/>
<path d="M28 23.25H25C23.48 23.25 22.25 22.02 22.25 20.5C22.25 18.98 23.48 17.75 25 17.75H28C28.41 17.75 28.75 18.09 28.75 18.5C28.75 18.91 28.41 19.25 28 19.25H25C24.31 19.25 23.75 19.81 23.75 20.5C23.75 21.19 24.31 21.75 25 21.75H28C28.41 21.75 28.75 22.09 28.75 22.5C28.75 22.91 28.41 23.25 28 23.25Z" fill="white"/>
<path d="M11 29.75C9.34 29.75 7.78 28.87 6.94 27.44C6.49 26.72 6.25 25.87 6.25 25C6.25 23.85 6.67 22.74 7.44 21.87C8.34 20.84 9.64 20.25 11 20.25C13.62 20.25 15.75 22.38 15.75 25C15.75 25.87 15.51 26.72 15.06 27.45C14.81 27.87 14.49 28.25 14.11 28.57C13.28 29.33 12.17 29.75 11 29.75ZM11 21.75C10.07 21.75 9.18 22.15 8.56 22.86C8.04 23.46 7.75 24.22 7.75 25C7.75 25.59 7.90997 26.17 8.21997 26.67C8.79997 27.65 9.87 28.25 11 28.25C11.79 28.25 12.55 27.96 13.13 27.44C13.39 27.22 13.61 26.96 13.77 26.68C14.09 26.17 14.25 25.59 14.25 25C14.25 23.21 12.79 21.75 11 21.75Z" fill="white"/>
<path d="M12.0699 26.7899C11.8799 26.7899 11.6899 26.72 11.5399 26.57L9.4299 24.46C9.1399 24.17 9.1399 23.69 9.4299 23.4C9.7199 23.11 10.1999 23.11 10.4899 23.4L12.5999 25.51C12.8899 25.8 12.8899 26.28 12.5999 26.57C12.4499 26.72 12.2599 26.7899 12.0699 26.7899Z" fill="white"/>
<path d="M9.93009 26.8199C9.74009 26.8199 9.55012 26.7499 9.40012 26.5999C9.11012 26.3099 9.11012 25.8299 9.40012 25.5399L11.5101 23.4299C11.8001 23.1399 12.2801 23.1399 12.5701 23.4299C12.8601 23.7199 12.8601 24.1999 12.5701 24.4899L10.4601 26.5999C10.3101 26.7499 10.1201 26.8199 9.93009 26.8199Z" fill="white"/>
</svg>
