 <svg
        width="40"
        height="40"
        viewBox="0 0 40 40"
        fill="none"
        xmlns="http://www.w3.org/2000/svg"
    >
        <path
            d="M17.9833 25.2833C17.6499 25.2833 17.3333 25.15 17.0999 24.9167L13.0666 20.8833C12.5833 20.4 12.5833 19.6 13.0666 19.1167C13.5499 18.6333 14.3499 18.6333 14.8333 19.1167L17.9833 22.2667L25.1499 15.1C25.6333 14.6167 26.4333 14.6167 26.9166 15.1C27.3999 15.5833 27.3999 16.3833 26.9166 16.8667L18.8666 24.9167C18.6333 25.15 18.3166 25.2833 17.9833 25.2833Z"
            fill="#FFC13A"
        />
        <path
            d="M20.0001 37.9167C18.9501 37.9167 17.9001 37.5667 17.0835 36.8667L14.4501 34.6C14.1835 34.3667 13.5168 34.1333 13.1668 34.1333H10.3001C7.83346 34.1333 5.83346 32.1333 5.83346 29.6667V26.8167C5.83346 26.4667 5.60013 25.8167 5.3668 25.55L3.1168 22.9C1.75013 21.2833 1.75013 18.7333 3.1168 17.1167L5.3668 14.4667C5.60013 14.2 5.83346 13.55 5.83346 13.2V10.3333C5.83346 7.86666 7.83346 5.86666 10.3001 5.86666H13.1835C13.5335 5.86666 14.2001 5.61666 14.4668 5.39999L17.1001 3.13333C18.7335 1.73333 21.2835 1.73333 22.9168 3.13333L25.5501 5.39999C25.8168 5.63333 26.4835 5.86666 26.8335 5.86666H29.6668C32.1335 5.86666 34.1335 7.86666 34.1335 10.3333V13.1667C34.1335 13.5167 34.3835 14.1833 34.6168 14.45L36.8835 17.0833C38.2835 18.7167 38.2835 21.2667 36.8835 22.9L34.6168 25.5333C34.3835 25.8 34.1335 26.4667 34.1335 26.8167V29.65C34.1335 32.1167 32.1335 34.1167 29.6668 34.1167H26.8335C26.4835 34.1167 25.8168 34.3667 25.5501 34.5833L22.9168 36.85C22.1001 37.5667 21.0501 37.9167 20.0001 37.9167ZM10.3001 8.36666C9.2168 8.36666 8.33346 9.24999 8.33346 10.3333V13.1833C8.33346 14.1333 7.88346 15.35 7.2668 16.0667L5.0168 18.7167C4.43346 19.4 4.43346 20.5833 5.0168 21.2667L7.2668 23.9167C7.88346 24.65 8.33346 25.85 8.33346 26.8V29.65C8.33346 30.7333 9.2168 31.6167 10.3001 31.6167H13.1835C14.1501 31.6167 15.3668 32.0667 16.1001 32.7L18.7335 34.9667C19.4168 35.55 20.6168 35.55 21.3001 34.9667L23.9335 32.7C24.6668 32.0833 25.8835 31.6167 26.8501 31.6167H29.6835C30.7668 31.6167 31.6501 30.7333 31.6501 29.65V26.8167C31.6501 25.85 32.1001 24.6333 32.7335 23.9L35.0001 21.2667C35.5835 20.5833 35.5835 19.3833 35.0001 18.7L32.7335 16.0667C32.1001 15.3333 31.6501 14.1167 31.6501 13.15V10.3333C31.6501 9.24999 30.7668 8.36666 29.6835 8.36666H26.8501C25.8835 8.36666 24.6668 7.91666 23.9335 7.28333L21.3001 5.01666C20.6168 4.43333 19.4168 4.43333 18.7335 5.01666L16.1001 7.29999C15.3668 7.91666 14.1335 8.36666 13.1835 8.36666H10.3001Z"
            fill="#FFC13A"
        />
    </svg>