<svg width="221" height="60" viewBox="0 0 221 60" fill="none" xmlns="http://www.w3.org/2000/svg">
<rect width="60" height="60" rx="30" fill="#44AEC3"/>
<path d="M91 23.968C90.84 23.792 90.608 23.608 90.304 23.416C90 23.208 89.64 23.016 89.224 22.84C88.808 22.664 88.36 22.52 87.88 22.408C87.4 22.296 86.904 22.24 86.392 22.24C85.272 22.24 84.44 22.448 83.896 22.864C83.352 23.28 83.08 23.856 83.08 24.592C83.08 25.136 83.232 25.568 83.536 25.888C83.84 26.192 84.304 26.448 84.928 26.656C85.552 26.864 86.336 27.088 87.28 27.328C88.432 27.6 89.432 27.928 90.28 28.312C91.128 28.68 91.776 29.176 92.224 29.8C92.672 30.424 92.896 31.248 92.896 32.272C92.896 33.136 92.736 33.88 92.416 34.504C92.096 35.128 91.648 35.64 91.072 36.04C90.496 36.424 89.832 36.712 89.08 36.904C88.328 37.08 87.52 37.168 86.656 37.168C85.808 37.168 84.96 37.08 84.112 36.904C83.28 36.728 82.48 36.472 81.712 36.136C80.96 35.784 80.264 35.36 79.624 34.864L80.848 32.56C81.056 32.768 81.352 33 81.736 33.256C82.136 33.496 82.592 33.728 83.104 33.952C83.632 34.176 84.2 34.368 84.808 34.528C85.432 34.672 86.064 34.744 86.704 34.744C87.776 34.744 88.592 34.56 89.152 34.192C89.728 33.808 90.016 33.264 90.016 32.56C90.016 31.984 89.832 31.528 89.464 31.192C89.096 30.84 88.56 30.544 87.856 30.304C87.152 30.064 86.312 29.824 85.336 29.584C84.216 29.28 83.28 28.952 82.528 28.6C81.776 28.232 81.208 27.768 80.824 27.208C80.456 26.632 80.272 25.904 80.272 25.024C80.272 23.904 80.544 22.96 81.088 22.192C81.632 21.408 82.368 20.824 83.296 20.44C84.24 20.04 85.296 19.84 86.464 19.84C87.232 19.84 87.96 19.928 88.648 20.104C89.336 20.264 89.976 20.488 90.568 20.776C91.176 21.064 91.728 21.392 92.224 21.76L91 23.968ZM100.896 37.24C99.9039 37.24 99.0159 37.072 98.2319 36.736C97.4479 36.384 96.7679 35.904 96.1919 35.296C95.6319 34.688 95.1999 34 94.8959 33.232C94.5919 32.448 94.4399 31.616 94.4399 30.736C94.4399 29.856 94.5919 29.024 94.8959 28.24C95.1999 27.456 95.6319 26.768 96.1919 26.176C96.7679 25.568 97.4479 25.096 98.2319 24.76C99.0319 24.408 99.9199 24.232 100.896 24.232C101.872 24.232 102.752 24.408 103.536 24.76C104.336 25.096 105.016 25.568 105.576 26.176C106.152 26.768 106.592 27.456 106.896 28.24C107.2 29.024 107.352 29.856 107.352 30.736C107.352 31.616 107.2 32.448 106.896 33.232C106.592 34 106.152 34.688 105.576 35.296C105.016 35.904 104.336 36.384 103.536 36.736C102.752 37.072 101.872 37.24 100.896 37.24ZM97.1519 30.76C97.1519 31.56 97.3199 32.28 97.6559 32.92C97.9919 33.56 98.4399 34.064 98.9999 34.432C99.5599 34.8 100.192 34.984 100.896 34.984C101.584 34.984 102.208 34.8 102.768 34.432C103.344 34.048 103.8 33.536 104.136 32.896C104.472 32.24 104.64 31.52 104.64 30.736C104.64 29.936 104.472 29.216 104.136 28.576C103.8 27.936 103.344 27.432 102.768 27.064C102.208 26.68 101.584 26.488 100.896 26.488C100.192 26.488 99.5599 26.68 98.9999 27.064C98.4399 27.448 97.9919 27.96 97.6559 28.6C97.3199 29.224 97.1519 29.944 97.1519 30.76ZM97.1759 22.192L99.6719 19.912H101.568L104.064 22.192L102.648 22.864L100.608 21.352L98.5679 22.864L97.1759 22.192ZM102.72 19.168L101.832 18.304C102.184 17.968 102.536 17.72 102.888 17.56C103.256 17.4 103.656 17.32 104.088 17.32C104.68 17.32 105.128 17.488 105.432 17.824C105.752 18.16 105.912 18.552 105.912 19C105.912 19.384 105.792 19.76 105.552 20.128C105.328 20.496 104.968 20.88 104.472 21.28L103.776 20.488C104.048 20.248 104.24 20.04 104.352 19.864C104.464 19.672 104.52 19.48 104.52 19.288C104.52 19.096 104.456 18.936 104.328 18.808C104.2 18.68 104.04 18.616 103.848 18.616C103.64 18.616 103.456 18.656 103.296 18.736C103.136 18.816 102.944 18.96 102.72 19.168ZM122.391 37.24C121.431 37.24 120.559 37.016 119.775 36.568C119.007 36.104 118.399 35.488 117.951 34.72V37H115.623V19.48H118.263V26.824C118.759 26.024 119.375 25.392 120.111 24.928C120.863 24.464 121.743 24.232 122.751 24.232C123.583 24.232 124.343 24.408 125.031 24.76C125.719 25.112 126.303 25.592 126.783 26.2C127.279 26.808 127.655 27.504 127.911 28.288C128.183 29.072 128.319 29.904 128.319 30.784C128.319 31.664 128.167 32.496 127.863 33.28C127.575 34.064 127.159 34.752 126.615 35.344C126.071 35.936 125.439 36.4 124.719 36.736C124.015 37.072 123.239 37.24 122.391 37.24ZM121.695 34.984C122.271 34.984 122.799 34.872 123.279 34.648C123.759 34.408 124.175 34.096 124.527 33.712C124.879 33.328 125.143 32.88 125.319 32.368C125.511 31.856 125.607 31.328 125.607 30.784C125.607 30.032 125.447 29.328 125.127 28.672C124.823 28.016 124.391 27.488 123.831 27.088C123.271 26.688 122.623 26.488 121.887 26.488C121.359 26.488 120.863 26.616 120.399 26.872C119.935 27.112 119.519 27.44 119.151 27.856C118.799 28.256 118.503 28.704 118.263 29.2V32.512C118.359 32.88 118.527 33.216 118.767 33.52C119.007 33.808 119.287 34.064 119.607 34.288C119.927 34.496 120.271 34.664 120.639 34.792C121.007 34.92 121.359 34.984 121.695 34.984ZM129.781 33.328C129.781 32.528 130.005 31.832 130.453 31.24C130.917 30.632 131.549 30.168 132.349 29.848C133.149 29.512 134.077 29.344 135.133 29.344C135.693 29.344 136.261 29.384 136.837 29.464C137.429 29.544 137.949 29.672 138.397 29.848V29.056C138.397 28.176 138.133 27.488 137.605 26.992C137.077 26.496 136.317 26.248 135.325 26.248C134.621 26.248 133.957 26.376 133.333 26.632C132.709 26.872 132.045 27.216 131.341 27.664L130.453 25.888C131.285 25.328 132.117 24.912 132.949 24.64C133.797 24.368 134.685 24.232 135.613 24.232C137.293 24.232 138.613 24.68 139.573 25.576C140.549 26.456 141.037 27.712 141.037 29.344V34.024C141.037 34.328 141.085 34.544 141.181 34.672C141.293 34.8 141.477 34.872 141.733 34.888V37C141.493 37.048 141.277 37.08 141.085 37.096C140.893 37.112 140.733 37.12 140.605 37.12C140.045 37.12 139.621 36.984 139.333 36.712C139.045 36.44 138.877 36.12 138.829 35.752L138.757 35.032C138.213 35.736 137.517 36.28 136.669 36.664C135.821 37.048 134.965 37.24 134.101 37.24C133.269 37.24 132.525 37.072 131.869 36.736C131.213 36.384 130.701 35.912 130.333 35.32C129.965 34.728 129.781 34.064 129.781 33.328ZM137.773 34.096C137.965 33.888 138.117 33.68 138.229 33.472C138.341 33.264 138.397 33.08 138.397 32.92V31.48C137.949 31.304 137.477 31.176 136.981 31.096C136.485 31 135.997 30.952 135.517 30.952C134.557 30.952 133.773 31.144 133.165 31.528C132.573 31.912 132.277 32.44 132.277 33.112C132.277 33.48 132.373 33.832 132.565 34.168C132.773 34.504 133.061 34.776 133.429 34.984C133.813 35.192 134.285 35.296 134.845 35.296C135.421 35.296 135.973 35.184 136.501 34.96C137.029 34.736 137.453 34.448 137.773 34.096ZM136.477 22.648L134.749 22.12L136.117 19.48H138.637L136.477 22.648ZM155.496 37H152.856V29.968C152.856 28.8 152.664 27.944 152.28 27.4C151.912 26.856 151.36 26.584 150.624 26.584C150.112 26.584 149.6 26.712 149.088 26.968C148.592 27.224 148.144 27.576 147.744 28.024C147.344 28.456 147.056 28.96 146.88 29.536V37H144.24V24.448H146.64V26.968C146.96 26.408 147.376 25.928 147.888 25.528C148.416 25.112 149.008 24.792 149.664 24.568C150.32 24.344 151.016 24.232 151.752 24.232C152.504 24.232 153.12 24.368 153.6 24.64C154.096 24.912 154.48 25.288 154.752 25.768C155.04 26.232 155.232 26.776 155.328 27.4C155.44 28.008 155.496 28.656 155.496 29.344V37ZM175.746 37H173.106V29.968C173.106 28.832 172.898 27.984 172.482 27.424C172.066 26.864 171.482 26.584 170.73 26.584C170.266 26.584 169.786 26.712 169.29 26.968C168.794 27.224 168.354 27.576 167.97 28.024C167.586 28.456 167.306 28.96 167.13 29.536V37H164.49V19.48H167.13V26.968C167.61 26.12 168.266 25.456 169.098 24.976C169.93 24.48 170.826 24.232 171.786 24.232C172.57 24.232 173.218 24.368 173.73 24.64C174.242 24.912 174.642 25.288 174.93 25.768C175.234 26.232 175.442 26.776 175.554 27.4C175.682 28.008 175.746 28.656 175.746 29.344V37ZM177.899 33.328C177.899 32.528 178.123 31.832 178.571 31.24C179.035 30.632 179.667 30.168 180.467 29.848C181.267 29.512 182.195 29.344 183.251 29.344C183.811 29.344 184.379 29.384 184.955 29.464C185.547 29.544 186.067 29.672 186.515 29.848V29.056C186.515 28.176 186.251 27.488 185.723 26.992C185.195 26.496 184.435 26.248 183.443 26.248C182.739 26.248 182.075 26.376 181.451 26.632C180.827 26.872 180.163 27.216 179.459 27.664L178.571 25.888C179.403 25.328 180.235 24.912 181.067 24.64C181.915 24.368 182.803 24.232 183.731 24.232C185.411 24.232 186.731 24.68 187.691 25.576C188.667 26.456 189.155 27.712 189.155 29.344V34.024C189.155 34.328 189.203 34.544 189.299 34.672C189.411 34.8 189.595 34.872 189.851 34.888V37C189.611 37.048 189.395 37.08 189.203 37.096C189.011 37.112 188.851 37.12 188.723 37.12C188.163 37.12 187.739 36.984 187.451 36.712C187.163 36.44 186.995 36.12 186.947 35.752L186.875 35.032C186.331 35.736 185.635 36.28 184.787 36.664C183.939 37.048 183.083 37.24 182.219 37.24C181.387 37.24 180.643 37.072 179.987 36.736C179.331 36.384 178.819 35.912 178.451 35.32C178.083 34.728 177.899 34.064 177.899 33.328ZM185.891 34.096C186.083 33.888 186.235 33.68 186.347 33.472C186.459 33.264 186.515 33.08 186.515 32.92V31.48C186.067 31.304 185.595 31.176 185.099 31.096C184.603 31 184.115 30.952 183.635 30.952C182.675 30.952 181.891 31.144 181.283 31.528C180.691 31.912 180.395 32.44 180.395 33.112C180.395 33.48 180.491 33.832 180.683 34.168C180.891 34.504 181.179 34.776 181.547 34.984C181.931 35.192 182.403 35.296 182.963 35.296C183.539 35.296 184.091 35.184 184.619 34.96C185.147 34.736 185.571 34.448 185.891 34.096ZM180.947 19.456H183.467L184.835 22.096L183.155 22.624L180.947 19.456ZM203.613 37H200.973V29.968C200.973 28.8 200.781 27.944 200.397 27.4C200.029 26.856 199.477 26.584 198.741 26.584C198.229 26.584 197.717 26.712 197.205 26.968C196.709 27.224 196.261 27.576 195.861 28.024C195.461 28.456 195.173 28.96 194.997 29.536V37H192.357V24.448H194.757V26.968C195.077 26.408 195.493 25.928 196.005 25.528C196.533 25.112 197.125 24.792 197.781 24.568C198.437 24.344 199.133 24.232 199.869 24.232C200.621 24.232 201.237 24.368 201.717 24.64C202.213 24.912 202.597 25.288 202.869 25.768C203.157 26.232 203.349 26.776 203.445 27.4C203.557 28.008 203.613 28.656 203.613 29.344V37ZM211.646 37.12C210.798 37.12 210.022 36.952 209.318 36.616C208.614 36.264 208.006 35.792 207.494 35.2C206.998 34.608 206.606 33.928 206.318 33.16C206.046 32.392 205.91 31.584 205.91 30.736C205.91 29.84 206.054 29 206.342 28.216C206.63 27.432 207.03 26.744 207.542 26.152C208.07 25.544 208.686 25.072 209.39 24.736C210.094 24.4 210.878 24.232 211.742 24.232C212.75 24.232 213.63 24.472 214.382 24.952C215.15 25.432 215.782 26.056 216.278 26.824V24.448H218.606V36.64C218.606 37.856 218.31 38.888 217.718 39.736C217.142 40.584 216.35 41.232 215.342 41.68C214.334 42.128 213.198 42.352 211.934 42.352C210.542 42.352 209.39 42.112 208.478 41.632C207.566 41.152 206.79 40.496 206.15 39.664L207.638 38.272C208.118 38.944 208.734 39.456 209.486 39.808C210.254 40.16 211.07 40.336 211.934 40.336C212.654 40.336 213.318 40.2 213.926 39.928C214.55 39.672 215.046 39.264 215.414 38.704C215.782 38.16 215.966 37.472 215.966 36.64V34.72C215.518 35.472 214.902 36.064 214.118 36.496C213.334 36.912 212.51 37.12 211.646 37.12ZM212.51 34.984C212.91 34.984 213.294 34.92 213.662 34.792C214.03 34.648 214.366 34.464 214.67 34.24C214.99 34 215.262 33.736 215.486 33.448C215.71 33.144 215.87 32.824 215.966 32.488V29.2C215.758 28.656 215.462 28.184 215.078 27.784C214.694 27.368 214.262 27.048 213.782 26.824C213.302 26.6 212.814 26.488 212.318 26.488C211.742 26.488 211.222 26.616 210.758 26.872C210.31 27.112 209.926 27.44 209.606 27.856C209.286 28.256 209.038 28.712 208.862 29.224C208.686 29.736 208.598 30.264 208.598 30.808C208.598 31.384 208.694 31.92 208.886 32.416C209.094 32.912 209.374 33.36 209.726 33.76C210.078 34.144 210.494 34.448 210.974 34.672C211.454 34.88 211.966 34.984 212.51 34.984Z" fill="#02173F"/>
</svg>
