 <svg
        width="56"
        height="56"
        viewBox="0 0 56 56"
        fill="none"
        xmlns="http://www.w3.org/2000/svg"
    >
        <path
            d="M35.0006 53.0833C34.3706 53.0833 33.7873 52.7333 33.4839 52.1967C33.1806 51.66 33.1806 50.9833 33.5073 50.4467L35.9573 46.3633C36.4473 45.5233 37.5206 45.2666 38.3606 45.7566C39.2006 46.2466 39.4573 47.32 38.9673 48.16L38.3372 49.2101C44.7772 47.6934 49.6073 41.9067 49.6073 35C49.6073 34.0433 50.4006 33.25 51.3573 33.25C52.3139 33.25 53.1073 34.0433 53.1073 35C53.0839 44.9633 44.9639 53.0833 35.0006 53.0833Z"
            fill="#B9E7E6"
        />
        <path
            d="M4.6665 22.75C3.70984 22.75 2.9165 21.9567 2.9165 21C2.9165 11.0367 11.0365 2.91669 20.9998 2.91669C21.6298 2.91669 22.2132 3.2667 22.5165 3.80337C22.8198 4.34003 22.8198 5.0167 22.4932 5.55336L20.0432 9.6367C19.5532 10.4767 18.4798 10.7334 17.6398 10.2434C16.7998 9.75339 16.5432 8.67999 17.0332 7.83999L17.6632 6.78996C11.2232 8.30662 6.39318 14.0934 6.39318 21C6.41652 21.9567 5.62317 22.75 4.6665 22.75Z"
            fill="#629AEE"
        />
        <path
            d="M41.253 17.4997C40.9497 17.4997 40.6464 17.4298 40.3664 17.2664L31.1031 11.8996C30.2631 11.4096 29.983 10.3364 30.473 9.49639C30.963 8.65639 32.0364 8.37634 32.8531 8.86634L41.253 13.7197L49.583 8.8897C50.423 8.3997 51.4964 8.70308 51.9631 9.51975C52.4531 10.3597 52.1497 11.433 51.333 11.923L42.1164 17.2431C41.8597 17.4064 41.5564 17.4997 41.253 17.4997Z"
            fill="#44AEC3"
        />
        <path
            d="M41.2539 26.9964C40.2972 26.9964 39.5039 26.2031 39.5039 25.2464V15.7264C39.5039 14.7697 40.2972 13.9764 41.2539 13.9764C42.2106 13.9764 43.0039 14.7697 43.0039 15.7264V25.2464C43.0039 26.2264 42.2106 26.9964 41.2539 26.9964Z"
            fill="#44AEC3"
        />
        <path
            d="M41.2528 27.4166C40.1795 27.4166 39.0829 27.1832 38.2195 26.6932L32.6195 23.5899C30.7995 22.5865 29.4229 20.23 29.4229 18.1533V12.2265C29.4229 10.1265 30.7995 7.79328 32.6429 6.76661L38.2428 3.66324C39.9695 2.70657 42.5595 2.70657 44.3095 3.66324L49.9095 6.76661C51.7295 7.76995 53.1062 10.1265 53.1062 12.2032V18.1299C53.1062 20.2299 51.7295 22.5632 49.9095 23.5665L44.3095 26.6699C43.3995 27.1832 42.3262 27.4166 41.2528 27.4166ZM39.9229 6.69654L34.3229 9.79992C33.6229 10.1966 32.9229 11.3865 32.9229 12.1798V18.1066C32.9229 18.9232 33.6229 20.1133 34.3229 20.4866L39.9229 23.6132C40.5995 23.9865 41.9062 23.9865 42.5828 23.6132L48.1828 20.5098C48.8828 20.1132 49.5828 18.9233 49.5828 18.1299V12.2032C49.5828 11.3865 48.8828 10.1966 48.1828 9.82327L42.5828 6.7199C41.9062 6.32323 40.5762 6.32321 39.9229 6.69654Z"
            fill="#44AEC3"
        />
        <path
            d="M14.7467 43.1664C14.4434 43.1664 14.14 43.0964 13.86 42.9331L4.5967 37.5663C3.7567 37.0763 3.47669 36.0031 3.96669 35.1631C4.45669 34.3231 5.53004 34.043 6.3467 34.533L14.7467 39.3864L23.0767 34.5564C23.9167 34.0664 24.99 34.3698 25.4567 35.1864C25.9467 36.0264 25.6434 37.0997 24.8267 37.5897L15.61 42.9098C15.3534 43.0731 15.0501 43.1664 14.7467 43.1664Z"
            fill="#FFC13A"
        />
        <path
            d="M14.7461 52.663C13.7894 52.663 12.9961 51.8697 12.9961 50.913V41.393C12.9961 40.4363 13.7894 39.643 14.7461 39.643C15.7028 39.643 16.4961 40.4363 16.4961 41.393V50.913C16.4961 51.893 15.7261 52.663 14.7461 52.663Z"
            fill="#FFC13A"
        />
        <path
            d="M14.7465 53.0832C13.6732 53.0832 12.5765 52.8499 11.7132 52.3599L6.11316 49.2565C4.29316 48.2532 2.9165 45.8966 2.9165 43.8199V37.8932C2.9165 35.7932 4.29316 33.4598 6.11316 32.4565L11.7132 29.3532C13.4398 28.3966 16.0532 28.3966 17.7798 29.3532L23.3798 32.4565C25.1998 33.4598 26.5765 35.8165 26.5765 37.8932V43.8199C26.5765 45.9199 25.1998 48.2532 23.3565 49.2799L17.7565 52.3832C16.9165 52.8499 15.8432 53.0832 14.7465 53.0832ZM13.4165 32.3632L7.81652 35.4666C7.11652 35.8632 6.4165 37.0531 6.4165 37.8465V43.7732C6.4165 44.5899 7.11652 45.7799 7.81652 46.1533L13.4165 49.2565C14.0932 49.6298 15.3998 49.6298 16.0765 49.2565L21.6765 46.1533C22.3765 45.7566 23.0765 44.5666 23.0765 43.7732V37.8465C23.0765 37.0298 22.3765 35.8399 21.6765 35.4666L16.0765 32.3398C15.4232 31.9898 14.0932 31.9899 13.4165 32.3632Z"
            fill="#FFC13A"
        />
    </svg>