<svg
        width="13"
        height="12"
        viewBox="0 0 13 12"
        fill="red"
        xmlns="http://www.w3.org/2000/svg"
    >
        <path
            d="M8.47754 11.375H5.47754C2.76254 11.375 1.60254 10.215 1.60254 7.5V4.5C1.60254 1.785 2.76254 0.625 5.47754 0.625H8.47754C11.1925 0.625 12.3525 1.785 12.3525 4.5V7.5C12.3525 10.215 11.1925 11.375 8.47754 11.375ZM5.47754 1.375C3.17254 1.375 2.35254 2.195 2.35254 4.5V7.5C2.35254 9.805 3.17254 10.625 5.47754 10.625H8.47754C10.7825 10.625 11.6025 9.805 11.6025 7.5V4.5C11.6025 2.195 10.7825 1.375 8.47754 1.375H5.47754Z"
            fill="#44AEC3"
        />
        <path
            d="M8.39246 6.33997C8.18746 6.33997 8.01746 6.16997 8.01746 5.96497V4.21997H6.27246C6.06746 4.21997 5.89746 4.04997 5.89746 3.84497C5.89746 3.63997 6.06746 3.46997 6.27246 3.46997H8.39246C8.59746 3.46997 8.76746 3.63997 8.76746 3.84497V5.96497C8.76746 6.16997 8.59746 6.33997 8.39246 6.33997Z"
            fill="#44AEC3"
        />
        <path
            d="M5.56223 7.045C5.46723 7.045 5.37223 7.01 5.29723 6.935C5.15223 6.79 5.15223 6.55 5.29723 6.405L8.12723 3.575C8.27223 3.43 8.51223 3.43 8.65723 3.575C8.80223 3.72 8.80223 3.96 8.65723 4.105L5.82723 6.935C5.75723 7.01 5.65723 7.045 5.56223 7.045Z"
            fill="#44AEC3"
        />
        <path
            d="M6.97776 9.11502C5.92276 9.11502 4.86276 8.94502 3.85776 8.61002C3.66276 8.54502 3.55776 8.33002 3.62276 8.13502C3.68776 7.94002 3.90276 7.83002 4.09776 7.90002C5.95776 8.52002 8.00276 8.52002 9.86276 7.90002C10.0578 7.83502 10.2728 7.94002 10.3378 8.13502C10.4028 8.33002 10.2978 8.54502 10.1028 8.61002C9.09276 8.95002 8.03276 9.11502 6.97776 9.11502Z"
            fill="#44AEC3"
        />
    </svg>